<svg xmlns="http://www.w3.org/2000/svg" viewBox="0 0 235.592 235.592" width="100" height="100"><g fill="#03e698"><path d="M117.795.002C52.843.002 0 52.844 0 117.795 0 182.747 52.843 235.59 117.795 235.59c64.953 0 117.797-52.843 117.797-117.795C235.592 52.844 182.748.002 117.795.002zm0 220.588C61.113 220.59 15 174.477 15 117.795 15 61.114 61.113 15.002 117.795 15.002c56.683 0 102.797 46.112 102.797 102.793 0 56.682-46.115 102.795-102.797 102.795z"/><path d="M139.834 68.258a7.499 7.499 0 0 0-7.5 7.5v84.076c0 4.143 3.357 7.5 7.5 7.5s7.5-3.357 7.5-7.5V75.758c0-4.143-3.357-7.5-7.5-7.5zm-44.076 0a7.499 7.499 0 0 0-7.5 7.5v84.076c0 4.143 3.357 7.5 7.5 7.5s7.5-3.357 7.5-7.5V75.758a7.5 7.5 0 0 0-7.5-7.5z"/></g></svg>